<?xml version="1.0" encoding="UTF-8" standalone="no"?>
<!-- Created with Inkscape (http://www.inkscape.org/) -->

<svg
   version="1.1"
   id="svg1"
   width="296.35867"
   height="296.35867"
   viewBox="0 0 296.35867 296.35867"
   sodipodi:docname="upload_3c555yba3umieiwm63utexv5ox.pdf"
   xmlns:inkscape="http://www.inkscape.org/namespaces/inkscape"
   xmlns:sodipodi="http://sodipodi.sourceforge.net/DTD/sodipodi-0.dtd"
   xmlns="http://www.w3.org/2000/svg"
   xmlns:svg="http://www.w3.org/2000/svg">
  <defs
     id="defs1" />
  <sodipodi:namedview
     id="namedview1"
     pagecolor="#ffffff"
     bordercolor="#000000"
     borderopacity="0.25"
     inkscape:showpageshadow="2"
     inkscape:pageopacity="0.0"
     inkscape:pagecheckerboard="0"
     inkscape:deskcolor="#d1d1d1">
    <inkscape:page
       x="0"
       y="0"
       inkscape:label="1"
       id="page1"
       width="296.35867"
       height="296.35867"
       margin="0"
       bleed="0" />
  </sodipodi:namedview>
  <g
     id="g1"
     inkscape:groupmode="layer"
     inkscape:label="1">
    <path
       id="path1"
       d="m 82.77263,0 c 0,45.71463 -37.058,82.77263 -82.77263,82.77263 -45.71463,0 -82.77263,-37.058 -82.77263,-82.77263 0,-45.71463 37.058,-82.77263 82.77263,-82.77263 45.71463,0 82.77263,37.058 82.77263,82.77263"
       style="fill:none;stroke:#ffffff;stroke-width:4.98138;stroke-linecap:butt;stroke-linejoin:miter;stroke-miterlimit:10;stroke-dasharray:none;stroke-opacity:1"
       transform="matrix(1.3333333,0,0,-1.3333333,148.18,148.17867)" />
    <path
       id="path2"
       d="M 0,0 V 28.3468 L 56.12352,56.12352 0,0 v 0"
       style="fill:#ffffff;fill-opacity:1;fill-rule:nonzero;stroke:#ffffff;stroke-width:3.9851;stroke-linecap:butt;stroke-linejoin:miter;stroke-miterlimit:10;stroke-dasharray:none;stroke-opacity:1"
       transform="matrix(1.3333333,0,0,-1.3333333,148.18,148.17867)" />
    <path
       id="path3"
       d="M 0,0 V 0 L 56.12352,56.12352 28.3468,0 H 0"
       style="fill:none;stroke:#ffffff;stroke-width:3.9851;stroke-linecap:butt;stroke-linejoin:miter;stroke-miterlimit:10;stroke-dasharray:none;stroke-opacity:1"
       transform="matrix(1.3333333,0,0,-1.3333333,148.18,148.17867)" />
    <path
       id="path4"
       d="M 0,0 H -28.3468 L -56.12352,56.12352 0,0 v 0"
       style="fill:#ffffff;fill-opacity:1;fill-rule:nonzero;stroke:#ffffff;stroke-width:3.9851;stroke-linecap:butt;stroke-linejoin:miter;stroke-miterlimit:10;stroke-dasharray:none;stroke-opacity:1"
       transform="matrix(1.3333333,0,0,-1.3333333,148.18,148.17867)" />
    <path
       id="path5"
       d="M 0,0 V 0 L -56.12352,56.12352 0,28.3468 V 0"
       style="fill:none;stroke:#ffffff;stroke-width:3.9851;stroke-linecap:butt;stroke-linejoin:miter;stroke-miterlimit:10;stroke-dasharray:none;stroke-opacity:1"
       transform="matrix(1.3333333,0,0,-1.3333333,148.18,148.17867)" />
    <path
       id="path6"
       d="M 0,0 V -28.3468 L -56.12352,-56.12352 0,0 v 0"
       style="fill:#ffffff;fill-opacity:1;fill-rule:nonzero;stroke:#ffffff;stroke-width:3.9851;stroke-linecap:butt;stroke-linejoin:miter;stroke-miterlimit:10;stroke-dasharray:none;stroke-opacity:1"
       transform="matrix(1.3333333,0,0,-1.3333333,148.18,148.17867)" />
    <path
       id="path7"
       d="M 0,0 V 0 L -56.12352,-56.12352 -28.3468,0 H 0"
       style="fill:none;stroke:#ffffff;stroke-width:3.9851;stroke-linecap:butt;stroke-linejoin:miter;stroke-miterlimit:10;stroke-dasharray:none;stroke-opacity:1"
       transform="matrix(1.3333333,0,0,-1.3333333,148.18,148.17867)" />
    <path
       id="path8"
       d="M 0,0 H 28.3468 L 56.12352,-56.12352 0,0 v 0"
       style="fill:#ffffff;fill-opacity:1;fill-rule:nonzero;stroke:#ffffff;stroke-width:3.9851;stroke-linecap:butt;stroke-linejoin:miter;stroke-miterlimit:10;stroke-dasharray:none;stroke-opacity:1"
       transform="matrix(1.3333333,0,0,-1.3333333,148.18,148.17867)" />
    <path
       id="path9"
       d="M 0,0 V 0 L 56.12352,-56.12352 0,-28.3468 V 0"
       style="fill:none;stroke:#ffffff;stroke-width:3.9851;stroke-linecap:butt;stroke-linejoin:miter;stroke-miterlimit:10;stroke-dasharray:none;stroke-opacity:1"
       transform="matrix(1.3333333,0,0,-1.3333333,148.18,148.17867)" />
    <path
       id="path10"
       d="M 0,0 H 107.1509 L 20.04422,20.04422 0,0"
       style="fill:#ffffff;fill-opacity:1;fill-rule:nonzero;stroke:#ffffff;stroke-width:3.9851;stroke-linecap:butt;stroke-linejoin:miter;stroke-miterlimit:10;stroke-dasharray:none;stroke-opacity:1"
       transform="matrix(1.3333333,0,0,-1.3333333,148.18,148.17867)" />
    <path
       id="path11"
       d="M 0,0 H 107.1509 L 20.04422,-20.04422 0,0"
       style="fill:none;stroke:#ffffff;stroke-width:3.9851;stroke-linecap:butt;stroke-linejoin:miter;stroke-miterlimit:10;stroke-dasharray:none;stroke-opacity:1"
       transform="matrix(1.3333333,0,0,-1.3333333,148.18,148.17867)" />
    <path
       id="path12"
       d="M 0,0 V 107.1509 L -20.04422,20.04422 0,0"
       style="fill:#ffffff;fill-opacity:1;fill-rule:nonzero;stroke:#ffffff;stroke-width:3.9851;stroke-linecap:butt;stroke-linejoin:miter;stroke-miterlimit:10;stroke-dasharray:none;stroke-opacity:1"
       transform="matrix(1.3333333,0,0,-1.3333333,148.18,148.17867)" />
    <path
       id="path13"
       d="M 0,0 V 107.1509 L 20.04422,20.04422 0,0"
       style="fill:none;stroke:#ffffff;stroke-width:3.9851;stroke-linecap:butt;stroke-linejoin:miter;stroke-miterlimit:10;stroke-dasharray:none;stroke-opacity:1"
       transform="matrix(1.3333333,0,0,-1.3333333,148.18,148.17867)" />
    <path
       id="path14"
       d="M 0,0 H -107.1509 L -20.04422,-20.04422 0,0"
       style="fill:#ffffff;fill-opacity:1;fill-rule:nonzero;stroke:#ffffff;stroke-width:3.9851;stroke-linecap:butt;stroke-linejoin:miter;stroke-miterlimit:10;stroke-dasharray:none;stroke-opacity:1"
       transform="matrix(1.3333333,0,0,-1.3333333,148.18,148.17867)" />
    <path
       id="path15"
       d="M 0,0 H -107.1509 L -20.04422,20.04422 0,0"
       style="fill:none;stroke:#ffffff;stroke-width:3.9851;stroke-linecap:butt;stroke-linejoin:miter;stroke-miterlimit:10;stroke-dasharray:none;stroke-opacity:1"
       transform="matrix(1.3333333,0,0,-1.3333333,148.18,148.17867)" />
    <path
       id="path16"
       d="M 0,0 V -107.1509 L 20.04422,-20.04422 0,0"
       style="fill:#ffffff;fill-opacity:1;fill-rule:nonzero;stroke:#ffffff;stroke-width:3.9851;stroke-linecap:butt;stroke-linejoin:miter;stroke-miterlimit:10;stroke-dasharray:none;stroke-opacity:1"
       transform="matrix(1.3333333,0,0,-1.3333333,148.18,148.17867)" />
    <path
       id="path17"
       d="M 0,0 V -107.1509 L -20.04422,-20.04422 0,0"
       style="fill:none;stroke:#ffffff;stroke-width:3.9851;stroke-linecap:butt;stroke-linejoin:miter;stroke-miterlimit:10;stroke-dasharray:none;stroke-opacity:1"
       transform="matrix(1.3333333,0,0,-1.3333333,148.18,148.17867)" />
  </g>
</svg>
